<svg xmlns="http://www.w3.org/2000/svg" xmlns:xlink="http://www.w3.org/1999/xlink" width="135" zoomAndPan="magnify" viewBox="0 0 101.25 30.000001" height="40" preserveAspectRatio="xMidYMid meet" version="1.2"><defs/><g id="cabb925727"><g style="fill:#ffffff;fill-opacity:1;"><g transform="translate(5.897176, 20.685486)"><path style="stroke:none" d="M 6.71875 -13.015625 C 7.65625 -13.015625 8.453125 -12.84375 9.109375 -12.5 C 9.773438 -12.164062 10.273438 -11.691406 10.609375 -11.078125 C 10.953125 -10.460938 11.125 -9.75 11.125 -8.9375 C 11.125 -8.113281 10.953125 -7.394531 10.609375 -6.78125 C 10.273438 -6.175781 9.773438 -5.703125 9.109375 -5.359375 C 8.453125 -5.023438 7.65625 -4.859375 6.71875 -4.859375 L 4.265625 -4.859375 L 4.265625 0 L 1.6875 0 L 1.6875 -13.015625 Z M 6.390625 -6.890625 C 7.816406 -6.890625 8.53125 -7.570312 8.53125 -8.9375 C 8.53125 -10.300781 7.816406 -10.984375 6.390625 -10.984375 L 4.265625 -10.984375 L 4.265625 -6.890625 Z M 6.390625 -6.890625 "/></g></g><g style="fill:#ffffff;fill-opacity:1;"><g transform="translate(17.793243, 20.685486)"><path style="stroke:none" d="M 1.6875 0 L 1.6875 -13.015625 L 6.921875 -13.015625 C 8.265625 -13.015625 9.28125 -12.703125 9.96875 -12.078125 C 10.65625 -11.460938 11 -10.609375 11 -9.515625 C 11 -8.722656 10.796875 -8.070312 10.390625 -7.5625 C 9.992188 -7.0625 9.394531 -6.679688 8.59375 -6.421875 L 8.59375 -6.234375 C 9.007812 -6.054688 9.34375 -5.789062 9.59375 -5.4375 C 9.84375 -5.09375 10.082031 -4.570312 10.3125 -3.875 L 11.609375 0 L 8.96875 0 L 7.6875 -3.890625 C 7.5625 -4.285156 7.414062 -4.585938 7.25 -4.796875 C 7.082031 -5.015625 6.875 -5.171875 6.625 -5.265625 C 6.375 -5.367188 6.046875 -5.421875 5.640625 -5.421875 L 4.265625 -5.421875 L 4.265625 0 Z M 6.609375 -7.46875 C 7.847656 -7.46875 8.46875 -8.046875 8.46875 -9.203125 C 8.46875 -10.390625 7.847656 -10.984375 6.609375 -10.984375 L 4.265625 -10.984375 L 4.265625 -7.46875 Z M 6.609375 -7.46875 "/></g></g><g style="fill:#ffffff;fill-opacity:1;"><g transform="translate(29.965341, 20.685486)"><path style="stroke:none" d="M 7.09375 0.1875 C 5.90625 0.1875 4.851562 -0.0507812 3.9375 -0.53125 C 3.03125 -1.019531 2.316406 -1.765625 1.796875 -2.765625 C 1.285156 -3.773438 1.03125 -5.023438 1.03125 -6.515625 C 1.03125 -8.003906 1.285156 -9.25 1.796875 -10.25 C 2.316406 -11.25 3.03125 -11.988281 3.9375 -12.46875 C 4.851562 -12.957031 5.90625 -13.203125 7.09375 -13.203125 C 8.289062 -13.203125 9.34375 -12.957031 10.25 -12.46875 C 11.15625 -11.988281 11.863281 -11.25 12.375 -10.25 C 12.894531 -9.25 13.15625 -8.003906 13.15625 -6.515625 C 13.15625 -5.023438 12.894531 -3.773438 12.375 -2.765625 C 11.863281 -1.765625 11.15625 -1.019531 10.25 -0.53125 C 9.34375 -0.0507812 8.289062 0.1875 7.09375 0.1875 Z M 7.09375 -2.046875 C 8.195312 -2.046875 9.039062 -2.398438 9.625 -3.109375 C 10.207031 -3.816406 10.5 -4.953125 10.5 -6.515625 C 10.5 -8.066406 10.207031 -9.195312 9.625 -9.90625 C 9.039062 -10.625 8.195312 -10.984375 7.09375 -10.984375 C 5.988281 -10.984375 5.140625 -10.625 4.546875 -9.90625 C 3.960938 -9.195312 3.671875 -8.066406 3.671875 -6.515625 C 3.671875 -4.953125 3.960938 -3.816406 4.546875 -3.109375 C 5.140625 -2.398438 5.988281 -2.046875 7.09375 -2.046875 Z M 7.09375 -2.046875 "/></g></g><g style="fill:#ffffff;fill-opacity:1;"><g transform="translate(44.149798, 20.685486)"><path style="stroke:none" d="M 4.046875 0 L 1.6875 0 L 1.6875 -13.015625 L 5.0625 -13.015625 L 8.34375 -3.453125 L 8.53125 -3.453125 L 11.8125 -13.015625 L 15.09375 -13.015625 L 15.09375 0 L 12.65625 0 L 12.65625 -8.59375 L 12.4375 -8.640625 L 9.421875 0 L 7.28125 0 L 4.28125 -8.640625 L 4.046875 -8.59375 Z M 4.046875 0 "/></g></g><g style="fill:#ffffff;fill-opacity:1;"><g transform="translate(60.952102, 20.685486)"><path style="stroke:none" d="M 4.265625 0 L 1.6875 0 L 1.6875 -13.015625 L 4.265625 -13.015625 Z M 4.265625 0 "/></g></g><g style="fill:#ffffff;fill-opacity:1;"><g transform="translate(66.917944, 20.685486)"><path style="stroke:none" d="M 5.765625 0.1875 C 4.867188 0.1875 4.066406 0.078125 3.359375 -0.140625 C 2.660156 -0.367188 2.078125 -0.660156 1.609375 -1.015625 C 1.140625 -1.378906 0.78125 -1.78125 0.53125 -2.21875 L 1.9375 -3.9375 L 2.15625 -3.9375 C 2.550781 -3.363281 3.050781 -2.898438 3.65625 -2.546875 C 4.257812 -2.203125 4.960938 -2.03125 5.765625 -2.03125 C 6.453125 -2.03125 6.972656 -2.175781 7.328125 -2.46875 C 7.679688 -2.757812 7.859375 -3.160156 7.859375 -3.671875 C 7.859375 -3.984375 7.800781 -4.242188 7.6875 -4.453125 C 7.570312 -4.660156 7.382812 -4.835938 7.125 -4.984375 C 6.863281 -5.128906 6.507812 -5.257812 6.0625 -5.375 L 4.390625 -5.75 C 3.222656 -6.019531 2.351562 -6.460938 1.78125 -7.078125 C 1.207031 -7.703125 0.921875 -8.507812 0.921875 -9.5 C 0.921875 -10.238281 1.101562 -10.882812 1.46875 -11.4375 C 1.832031 -12 2.363281 -12.429688 3.0625 -12.734375 C 3.769531 -13.046875 4.613281 -13.203125 5.59375 -13.203125 C 6.601562 -13.203125 7.460938 -13.066406 8.171875 -12.796875 C 8.890625 -12.535156 9.492188 -12.132812 9.984375 -11.59375 L 8.71875 -9.84375 L 8.5 -9.84375 C 8.125 -10.226562 7.695312 -10.515625 7.21875 -10.703125 C 6.75 -10.898438 6.207031 -11 5.59375 -11 C 4.894531 -11 4.359375 -10.875 3.984375 -10.625 C 3.617188 -10.375 3.4375 -10.03125 3.4375 -9.59375 C 3.4375 -9.1875 3.566406 -8.859375 3.828125 -8.609375 C 4.085938 -8.367188 4.53125 -8.179688 5.15625 -8.046875 L 6.875 -7.6875 C 8.132812 -7.425781 9.050781 -6.972656 9.625 -6.328125 C 10.195312 -5.691406 10.484375 -4.863281 10.484375 -3.84375 C 10.484375 -3.03125 10.304688 -2.320312 9.953125 -1.71875 C 9.597656 -1.113281 9.066406 -0.644531 8.359375 -0.3125 C 7.660156 0.0195312 6.796875 0.1875 5.765625 0.1875 Z M 5.765625 0.1875 "/></g></g><g style="fill:#ffffff;fill-opacity:1;"><g transform="translate(78.101671, 20.685486)"><path style="stroke:none" d="M 4.265625 -5.71875 L 4.265625 -2.15625 L 10.484375 -2.15625 L 10.484375 0 L 1.6875 0 L 1.6875 -13.015625 L 10.34375 -13.015625 L 10.34375 -10.859375 L 4.265625 -10.859375 L 4.265625 -7.8125 L 9.578125 -7.8125 L 9.578125 -5.71875 Z M 4.265625 -5.71875 "/></g></g><g style="fill:#ffffff;fill-opacity:1;"><g transform="translate(89.588199, 20.685486)"><path style="stroke:none" d="M 2.515625 0.078125 C 2.191406 0.078125 1.910156 0.015625 1.671875 -0.109375 C 1.429688 -0.234375 1.25 -0.410156 1.125 -0.640625 C 1 -0.867188 0.9375 -1.125 0.9375 -1.40625 C 0.9375 -1.6875 1 -1.941406 1.125 -2.171875 C 1.25 -2.398438 1.429688 -2.578125 1.671875 -2.703125 C 1.910156 -2.835938 2.191406 -2.90625 2.515625 -2.90625 C 2.828125 -2.90625 3.101562 -2.835938 3.34375 -2.703125 C 3.59375 -2.578125 3.78125 -2.398438 3.90625 -2.171875 C 4.03125 -1.953125 4.09375 -1.703125 4.09375 -1.421875 C 4.09375 -0.984375 3.945312 -0.625 3.65625 -0.34375 C 3.375 -0.0625 2.992188 0.078125 2.515625 0.078125 Z M 2.515625 0.078125 "/></g></g></g></svg>